<svg width="19" height="19" viewBox="0 0 19 19" fill="none" xmlns="http://www.w3.org/2000/svg">
<path d="M1.80775 18.7693C1.30258 18.7693 0.875 18.5943 0.525 18.2443C0.175 17.8943 0 17.4667 0 16.9615V7.577C0 7.07183 0.175 6.64425 0.525 6.29425C0.875 5.94425 1.30258 5.76925 1.80775 5.76925H17.1923C17.6974 5.76925 18.125 5.94425 18.475 6.29425C18.825 6.64425 19 7.07183 19 7.577V16.9615C19 17.4667 18.825 17.8943 18.475 18.2443C18.125 18.5943 17.6974 18.7693 17.1923 18.7693H1.80775ZM1.80775 17.2693H17.1923C17.2693 17.2693 17.3398 17.2372 17.4038 17.173C17.4679 17.109 17.5 17.0385 17.5 16.9615V7.577C17.5 7.5 17.4679 7.4295 17.4038 7.3655C17.3398 7.30133 17.2693 7.26925 17.1923 7.26925H1.80775C1.73075 7.26925 1.66025 7.30133 1.59625 7.3655C1.53208 7.4295 1.5 7.5 1.5 7.577V16.9615C1.5 17.0385 1.53208 17.109 1.59625 17.173C1.66025 17.2372 1.73075 17.2693 1.80775 17.2693ZM7.75 15.8077L13.0577 12.2693L7.75 8.73075V15.8077ZM1.75 4.38475V2.88475H17.25V4.38475H1.75ZM4.75 1.5V0H14.25V1.5H4.75Z" fill="#1C1B1F"/>
</svg>
