<svg width="17" height="16" viewBox="0 0 17 16" fill="none" xmlns="http://www.w3.org/2000/svg">
<path d="M4.65244 15.443C4.48634 15.443 4.33128 15.4024 4.18727 15.3213C4.04326 15.2401 3.93238 15.1203 3.85464 14.962L1.97905 11.5426H3.34875L4.32158 13.4828H6.50274V12.5722H4.86061L3.88778 10.632H1.48075L0.116861 8.18686C0.0831348 8.10759 0.0552265 8.03003 0.0331359 7.95419C0.0110452 7.87834 0 7.80078 0 7.72151C0 7.66609 0.0389536 7.51097 0.116861 7.25616L1.48075 4.81102H3.88778L4.86061 2.87086H6.50274V1.96023H4.32158L3.34875 3.90039H1.97905L3.85464 0.48105C3.93238 0.322673 4.04326 0.202904 4.18727 0.121742C4.33128 0.0405803 4.48634 0 4.65244 0H7.03772C7.29859 0 7.51621 0.0887967 7.69057 0.266392C7.8651 0.443815 7.95237 0.66525 7.95237 0.930699V4.85065H6.42483L5.52991 5.76153H7.95237V8.71141H5.84305L4.8897 6.78103H2.78645L1.89128 7.69191H4.35067L5.30428 9.62229H7.95237V14.5123C7.95237 14.7778 7.8651 14.9992 7.69057 15.1766C7.51621 15.3542 7.29859 15.443 7.03772 15.443H4.65244ZM10.4234 15.443C9.93184 15.443 9.51381 15.2678 9.16929 14.9174C8.82495 14.5669 8.65278 14.1415 8.65278 13.6413C8.65278 13.2731 8.74713 12.9503 8.93582 12.6731C9.12469 12.3959 9.3676 12.1828 9.66456 12.0337V3.4093C9.3676 3.26019 9.12469 3.04708 8.93582 2.76996C8.74713 2.49268 8.65278 2.16992 8.65278 1.80169C8.65278 1.3015 8.82495 0.876134 9.16929 0.525577C9.51381 0.175192 9.93184 0 10.4234 0C10.915 0 11.333 0.175192 11.6775 0.525577C12.0219 0.876134 12.194 1.3015 12.194 1.80169C12.194 2.16992 12.0997 2.49268 11.911 2.76996C11.7221 3.04708 11.4792 3.26019 11.1822 3.4093V6.19703L13.4782 4.79326C13.4263 4.2627 13.5758 3.80139 13.9267 3.4093C14.2776 3.0174 14.7118 2.82144 15.2294 2.82144C15.7209 2.82144 16.139 2.99663 16.4835 3.34702C16.8278 3.6974 17 4.12277 17 4.62313C17 5.12331 16.8278 5.54859 16.4835 5.89898C16.139 6.24936 15.7209 6.42455 15.2294 6.42455C15.0439 6.42455 14.8726 6.39658 14.7156 6.34065C14.5586 6.28454 14.4076 6.20698 14.2624 6.10797L11.7562 7.65227L14.4667 9.84003C14.5848 9.77535 14.706 9.72945 14.8305 9.70234C14.9549 9.67522 15.0879 9.66167 15.2294 9.66167C15.7209 9.66167 16.139 9.83695 16.4835 10.1875C16.8278 10.5379 17 10.9632 17 11.4634C17 11.9637 16.8278 12.3891 16.4835 12.7395C16.139 13.0898 15.7209 13.265 15.2294 13.265C14.6508 13.265 14.1893 13.0348 13.845 12.5742C13.5007 12.1135 13.39 11.6073 13.5131 11.0557L11.1822 9.15488V12.0595C11.4792 12.2086 11.7179 12.4201 11.8983 12.6939C12.0786 12.9678 12.1687 13.2836 12.1687 13.6413C12.1687 14.1415 12.0008 14.5669 11.6649 14.9174C11.3288 15.2678 10.915 15.443 10.4234 15.443Z" fill="black"/>
</svg>
