<svg width="18" height="19" viewBox="0 0 18 19" fill="none" xmlns="http://www.w3.org/2000/svg">
<path d="M0.892387 18.5195C0.638885 18.5195 0.42682 18.4341 0.256193 18.2633C0.0853976 18.0927 0 17.8806 0 17.6271V4.33285C0 4.10002 0.0488346 3.90182 0.146504 3.73826C0.244173 3.57469 0.400932 3.45214 0.616779 3.37061L9.8788 0.0539745C10.1632 -0.0482336 10.4241 -0.00528303 10.6615 0.182827C10.8987 0.370937 11.0173 0.61242 11.0173 0.907277V3.39003H12.2198C12.4733 3.39003 12.6854 3.47542 12.856 3.64622C13.0268 3.81685 13.1122 4.02891 13.1122 4.28241V7.25006H11.5993V4.90297H1.51295V17.0066H7.45026L8.96321 18.5195H0.892387ZM4.88783 3.39003H9.50434V1.84606L4.88783 3.39003ZM13.4615 18.3448C12.2018 18.3448 11.1305 17.9032 10.2475 17.0202C9.36423 16.137 8.92261 15.0656 8.92261 13.8062C8.92261 12.5466 9.36423 11.4752 10.2475 10.5922C11.1305 9.70894 12.2018 9.26733 13.4615 9.26733C14.7209 9.26733 15.7922 9.70894 16.6755 10.5922C17.5585 11.4752 18.0001 12.5466 18.0001 13.8062C18.0001 15.0656 17.5585 16.137 16.6755 17.0202C15.7922 17.9032 14.7209 18.3448 13.4615 18.3448ZM12.3946 16.0173L15.7889 13.7868L12.3946 11.5562V16.0173Z" fill="#1C1B1F"/>
</svg>
