<svg width="9" height="11" viewBox="0 0 9 11" fill="none" xmlns="http://www.w3.org/2000/svg">
<path d="M0 10.2735V0.726487C0 0.508519 0.0726559 0.33291 0.217968 0.199659C0.363279 0.0665535 0.532785 0 0.726486 0C0.789551 0 0.853779 0.00842883 0.91917 0.025285C0.98456 0.0422865 1.04871 0.067716 1.11163 0.101574L8.62432 4.88967C8.73563 4.96712 8.81919 5.0567 8.87499 5.15842C8.93064 5.26014 8.95847 5.37399 8.95847 5.49998C8.95847 5.62596 8.93064 5.73982 8.87499 5.84153C8.81919 5.94325 8.73563 6.03284 8.62432 6.11029L1.11163 10.8984C1.04871 10.9322 0.98456 10.9577 0.91917 10.9747C0.853779 10.9915 0.789551 11 0.726486 11C0.532785 11 0.363279 10.9334 0.217968 10.8003C0.0726559 10.667 0 10.4914 0 10.2735Z" fill="black"/>
<path d="M0 10.2735V0.726487C0 0.508519 0.0726559 0.33291 0.217968 0.199659C0.363279 0.0665535 0.532785 0 0.726486 0C0.789551 0 0.853779 0.00842883 0.91917 0.025285C0.98456 0.0422865 1.04871 0.067716 1.11163 0.101574L8.62432 4.88967C8.73563 4.96712 8.81919 5.0567 8.87499 5.15842C8.93064 5.26014 8.95847 5.37399 8.95847 5.49998C8.95847 5.62596 8.93064 5.73982 8.87499 5.84153C8.81919 5.94325 8.73563 6.03284 8.62432 6.11029L1.11163 10.8984C1.04871 10.9322 0.98456 10.9577 0.91917 10.9747C0.853779 10.9915 0.789551 11 0.726486 11C0.532785 11 0.363279 10.9334 0.217968 10.8003C0.0726559 10.667 0 10.4914 0 10.2735Z" fill="#EB1700"/>
<path d="M0 10.2735V0.726487C0 0.508519 0.0726559 0.33291 0.217968 0.199659C0.363279 0.0665535 0.532785 0 0.726486 0C0.789551 0 0.853779 0.00842883 0.91917 0.025285C0.98456 0.0422865 1.04871 0.067716 1.11163 0.101574L8.62432 4.88967C8.73563 4.96712 8.81919 5.0567 8.87499 5.15842C8.93064 5.26014 8.95847 5.37399 8.95847 5.49998C8.95847 5.62596 8.93064 5.73982 8.87499 5.84153C8.81919 5.94325 8.73563 6.03284 8.62432 6.11029L1.11163 10.8984C1.04871 10.9322 0.98456 10.9577 0.91917 10.9747C0.853779 10.9915 0.789551 11 0.726486 11C0.532785 11 0.363279 10.9334 0.217968 10.8003C0.0726559 10.667 0 10.4914 0 10.2735Z" fill="url(#paint0_linear_1_808)" fill-opacity="0.6"/>
<defs>
<linearGradient id="paint0_linear_1_808" x1="0" y1="0" x2="10.7722" y2="8.77295" gradientUnits="userSpaceOnUse">
<stop offset="0.154535" stop-color="white"/>
<stop offset="1" stop-color="#EB1700"/>
</linearGradient>
</defs>
</svg>
