<svg width="22" height="17" viewBox="0 0 22 17" fill="none" xmlns="http://www.w3.org/2000/svg">
<path d="M14.3404 11.6623L15.2191 10.7983L12.9206 8.45647C13.106 8.16455 13.2418 7.87194 13.3281 7.57865C13.4142 7.28553 13.4573 6.95867 13.4573 6.59806C13.4573 5.67731 13.14 4.89892 12.5054 4.26288C11.8707 3.62684 11.1119 3.30882 10.2291 3.30882C9.34627 3.30882 8.58749 3.62684 7.95276 4.26288C7.3182 4.89892 7.00092 5.67731 7.00092 6.59806C7.00092 7.51864 7.3182 8.29694 7.95276 8.93298C8.58749 9.56902 9.34627 9.88704 10.2291 9.88704C10.583 9.88704 10.9029 9.83982 11.1888 9.74538C11.4746 9.65093 11.7692 9.50927 12.0726 9.32038L14.3404 11.6623ZM10.2291 8.65867C9.67291 8.65867 9.19678 8.4569 8.8007 8.05336C8.40463 7.64983 8.20659 7.16473 8.20659 6.59806C8.20659 6.03139 8.40463 5.54629 8.8007 5.14276C9.19678 4.73922 9.67291 4.53745 10.2291 4.53745C10.7748 4.53745 11.2484 4.73922 11.6497 5.14276C12.051 5.54629 12.2516 6.03139 12.2516 6.59806C12.2516 7.16473 12.0536 7.64983 11.6575 8.05336C11.2614 8.4569 10.7853 8.65867 10.2291 8.65867ZM2.9559 14.4242C2.44505 14.4242 2.01265 14.2439 1.65871 13.8833C1.30477 13.5227 1.1278 13.0822 1.1278 12.5617V1.86253C1.1278 1.34206 1.30477 0.901515 1.65871 0.540909C2.01265 0.180303 2.44505 0 2.9559 0H18.5136C19.0244 0 19.4568 0.180303 19.8107 0.540909C20.1647 0.901515 20.3417 1.34206 20.3417 1.86253V12.5617C20.3417 13.0822 20.1647 13.5227 19.8107 13.8833C19.4568 14.2439 19.0244 14.4242 18.5136 14.4242H2.9559ZM2.9559 12.8788H18.5136C18.5914 12.8788 18.6627 12.8458 18.7274 12.7799C18.7923 12.7138 18.8248 12.641 18.8248 12.5617V1.86253C18.8248 1.7832 18.7923 1.71056 18.7274 1.64462C18.6627 1.57851 18.5914 1.54545 18.5136 1.54545H2.9559C2.87803 1.54545 2.80674 1.57851 2.74202 1.64462C2.67713 1.71056 2.64469 1.7832 2.64469 1.86253V12.5617C2.64469 12.641 2.67713 12.7138 2.74202 12.7799C2.80674 12.8458 2.87803 12.8788 2.9559 12.8788ZM0 17V15.4545H21.4695V17H0Z" fill="black"/>
</svg>
