<svg width="19" height="15" viewBox="0 0 19 15" fill="none" xmlns="http://www.w3.org/2000/svg">
<path fill-rule="evenodd" clip-rule="evenodd" d="M1.80775 15H9.5V13.5H1.80775C1.71792 13.5 1.64417 13.4712 1.5865 13.4135C1.52883 13.3558 1.5 13.2821 1.5 13.1923V1.80775C1.5 1.71792 1.52883 1.64417 1.5865 1.5865C1.64417 1.52883 1.71792 1.5 1.80775 1.5H17.1923C17.2821 1.5 17.3558 1.52883 17.4135 1.5865C17.4712 1.64417 17.5 1.71792 17.5 1.80775V6.5H19V1.80775C19 1.30258 18.825 0.875 18.475 0.525C18.125 0.175 17.6974 0 17.1923 0H1.80775C1.30258 0 0.875 0.175 0.525 0.525C0.175 0.875 0 1.30258 0 1.80775V13.1923C0 13.6974 0.175 14.125 0.525 14.475C0.875 14.825 1.30258 15 1.80775 15ZM7.25 3.4615V11.5385L13.5385 7.5L7.25 3.4615Z" fill="#1C1B1F"/>
</svg>
