<svg width="6" height="7" viewBox="0 0 6 7" fill="none" xmlns="http://www.w3.org/2000/svg">
<path d="M0 6.53768V0.462311C0 0.323604 0.0462357 0.211852 0.138707 0.127056C0.231178 0.0423524 0.339046 0 0.46231 0C0.502443 0 0.543316 0.00536381 0.584928 0.0160905C0.62654 0.0269096 0.667366 0.0430921 0.707406 0.064638L5.48822 3.11162C5.55906 3.1609 5.61223 3.21791 5.64774 3.28264C5.68315 3.34737 5.70086 3.41982 5.70086 3.5C5.70086 3.58017 5.68315 3.65262 5.64774 3.71735C5.61223 3.78208 5.55906 3.83909 5.48822 3.88838L0.707406 6.93535C0.667366 6.9569 0.62654 6.97308 0.584928 6.9839C0.543316 6.99463 0.502443 6.99999 0.46231 6.99999C0.339046 6.99999 0.231178 6.95764 0.138707 6.87294C0.0462357 6.78814 0 6.67639 0 6.53768Z" fill="black"/>
<path d="M0 6.53768V0.462311C0 0.323604 0.0462357 0.211852 0.138707 0.127056C0.231178 0.0423524 0.339046 0 0.46231 0C0.502443 0 0.543316 0.00536381 0.584928 0.0160905C0.62654 0.0269096 0.667366 0.0430921 0.707406 0.064638L5.48822 3.11162C5.55906 3.1609 5.61223 3.21791 5.64774 3.28264C5.68315 3.34737 5.70086 3.41982 5.70086 3.5C5.70086 3.58017 5.68315 3.65262 5.64774 3.71735C5.61223 3.78208 5.55906 3.83909 5.48822 3.88838L0.707406 6.93535C0.667366 6.9569 0.62654 6.97308 0.584928 6.9839C0.543316 6.99463 0.502443 6.99999 0.46231 6.99999C0.339046 6.99999 0.231178 6.95764 0.138707 6.87294C0.0462357 6.78814 0 6.67639 0 6.53768Z" fill="#EB1700"/>
<path d="M0 6.53768V0.462311C0 0.323604 0.0462357 0.211852 0.138707 0.127056C0.231178 0.0423524 0.339046 0 0.46231 0C0.502443 0 0.543316 0.00536381 0.584928 0.0160905C0.62654 0.0269096 0.667366 0.0430921 0.707406 0.064638L5.48822 3.11162C5.55906 3.1609 5.61223 3.21791 5.64774 3.28264C5.68315 3.34737 5.70086 3.41982 5.70086 3.5C5.70086 3.58017 5.68315 3.65262 5.64774 3.71735C5.61223 3.78208 5.55906 3.83909 5.48822 3.88838L0.707406 6.93535C0.667366 6.9569 0.62654 6.97308 0.584928 6.9839C0.543316 6.99463 0.502443 6.99999 0.46231 6.99999C0.339046 6.99999 0.231178 6.95764 0.138707 6.87294C0.0462357 6.78814 0 6.67639 0 6.53768Z" fill="url(#paint0_linear_1_359)" fill-opacity="0.4"/>
<defs>
<linearGradient id="paint0_linear_1_359" x1="0" y1="0" x2="6.85503" y2="5.5828" gradientUnits="userSpaceOnUse">
<stop offset="0.154535" stop-color="white"/>
<stop offset="1" stop-color="#EB1700"/>
</linearGradient>
</defs>
</svg>
