<svg width="20" height="18" viewBox="0 0 20 18" fill="none" xmlns="http://www.w3.org/2000/svg">
<path d="M1.8594 18C1.3398 18 0.9 17.82 0.54 17.46C0.18 17.1 0 16.6602 0 16.1406V1.8594C0 1.3398 0.18 0.9 0.54 0.54C0.9 0.18 1.3398 0 1.8594 0H18.0789C18.5985 0 19.0383 0.18 19.3983 0.54C19.7583 0.9 19.9383 1.3398 19.9383 1.8594V16.1406C19.9383 16.6602 19.7583 17.1 19.3983 17.46C19.0383 17.82 18.5985 18 18.0789 18H1.8594ZM1.8594 16.4571H4.11429V13.8857H1.54286V16.1406C1.54286 16.2198 1.57577 16.2923 1.6416 16.3581C1.7076 16.4241 1.7802 16.4571 1.8594 16.4571ZM15.8241 16.4571H18.0789C18.1581 16.4571 18.2307 16.4241 18.2967 16.3581C18.3626 16.2923 18.3955 16.2198 18.3955 16.1406V13.8857H15.8241V16.4571ZM9.19774 13.589H10.7406V7.87243H9.19774V13.589ZM1.54286 12.3429H4.11429V9.77143H1.54286V12.3429ZM15.8241 12.3429H18.3955V9.77143H15.8241V12.3429ZM1.54286 8.22857H4.11429V5.65714H1.54286V8.22857ZM15.8241 8.22857H18.3955V5.65714H15.8241V8.22857ZM9.96917 5.91429C10.2045 5.91429 10.4019 5.83466 10.5611 5.6754C10.7204 5.51614 10.8 5.31883 10.8 5.08346C10.8 4.84809 10.7204 4.65077 10.5611 4.49151C10.4019 4.33243 10.2045 4.25289 9.96917 4.25289C9.7338 4.25289 9.53649 4.33243 9.37723 4.49151C9.21797 4.65077 9.13834 4.84809 9.13834 5.08346C9.13834 5.31883 9.21797 5.51614 9.37723 5.6754C9.53649 5.83466 9.7338 5.91429 9.96917 5.91429ZM1.54286 4.11429H4.11429V1.54286H1.8594C1.7802 1.54286 1.7076 1.57586 1.6416 1.64186C1.57577 1.70769 1.54286 1.7802 1.54286 1.8594V4.11429ZM15.8241 4.11429H18.3955V1.8594C18.3955 1.7802 18.3626 1.70769 18.2967 1.64186C18.2307 1.57586 18.1581 1.54286 18.0789 1.54286H15.8241V4.11429ZM5.65714 16.4571H14.2812V1.54286H5.65714V16.4571Z" fill="#1C1B1F"/>
</svg>
