<svg width="21" height="18" viewBox="0 0 21 18" fill="none" xmlns="http://www.w3.org/2000/svg">
<path d="M2 16C1.45 16 0.979167 15.8042 0.5875 15.4125C0.195833 15.0208 0 14.55 0 14V2C0 1.45 0.195833 0.979167 0.5875 0.5875C0.979167 0.195833 1.45 0 2 0H18C18.55 0 19.0208 0.195833 19.4125 0.5875C19.8042 0.979167 20 1.45 20 2V8.05C19.75 7.65 19.4542 7.27083 19.1125 6.9125C18.7708 6.55417 18.4 6.24167 18 5.975V2H11V5.975C10.1 6.55833 9.375 7.3375 8.825 8.3125C8.275 9.2875 8 10.35 8 11.5C8 12.3833 8.1625 13.2083 8.4875 13.975C8.8125 14.7417 9.25833 15.4167 9.825 16H2ZM19.6 18L16.9 15.3C16.5333 15.5167 16.15 15.6875 15.75 15.8125C15.35 15.9375 14.9333 16 14.5 16C13.25 16 12.1875 15.5625 11.3125 14.6875C10.4375 13.8125 10 12.75 10 11.5C10 10.25 10.4375 9.1875 11.3125 8.3125C12.1875 7.4375 13.25 7 14.5 7C15.75 7 16.8125 7.4375 17.6875 8.3125C18.5625 9.1875 19 10.25 19 11.5C19 11.9333 18.9375 12.35 18.8125 12.75C18.6875 13.15 18.5167 13.5333 18.3 13.9L21 16.6L19.6 18ZM14.5 14C15.2 14 15.7917 13.7583 16.275 13.275C16.7583 12.7917 17 12.2 17 11.5C17 10.8 16.7583 10.2083 16.275 9.725C15.7917 9.24167 15.2 9 14.5 9C13.8 9 13.2083 9.24167 12.725 9.725C12.2417 10.2083 12 10.8 12 11.5C12 12.2 12.2417 12.7917 12.725 13.275C13.2083 13.7583 13.8 14 14.5 14Z" fill="white"/>
</svg>
